# xmcd
#
# Track frame offsets:
#	150
#	18077
#	36673
#	52745
#	71219
#	86788
#	102639
#	117564
#	133351
#	151640
#	166421
#	182498
#	199959
#	217400
#	236393
#	251321
#	268773
#	281329
#	300060
#
# Disc length: 4287 seconds
# Revision: 0
# Processed by: cddbd v1.5.2PL0 Copyright (c) Steve Scherf et al.
# Submitted via: dBpowerAMP V12.0
#
DISCID=1110bd13
DTITLE=Various Artist - Country Radio April 2007
DYEAR=2007
DGENRE=Country
TTITLE0=Brad Paisley - Ticks
TTITLE1=George Canyon - I Want You To Live
TTITLE2=Big and Rich - Lost In This Moment
TTITLE3=George Strait - Wrapped
TTITLE4=Johnny Reid - Love Sweet Love
TTITLE5=Rodney Atkins - These Are My People
TTITLE6=Flynnville Train - Last Good Time
TTITLE7=John Anderson - A Woman Knows
TTITLE8=Miranda Lambert - Famous In A Small town
TTITLE9=Craig Morgan - Tough
TTITLE10=Dixie Chicks - Neighbor
TTITLE11=Carolyn Dawn Johnson - Got A Good Day
TTITLE12=Lucinda Williams - Are You Alright
TTITLE13=Randy Rogers Band - One More Goodbye
TTITLE14=Bomshel - Bomshel Stomp
TTITLE15=Steve Fox - Little Footprints
TTITLE16=Lucy Angel - How Long
TTITLE17=Shane Yellowbird - Pickup Truck
TTITLE18=Lee Ann Womack - The Weight
EXTD=
EXTT0=
EXTT1=
EXTT2=
EXTT3=
EXTT4=
EXTT5=
EXTT6=
EXTT7=
EXTT8=
EXTT9=
EXTT10=
EXTT11=
EXTT12=
EXTT13=
EXTT14=
EXTT15=
EXTT16=
EXTT17=
EXTT18=
PLAYORDER=
